<svg width="105" height="40" viewBox="0 0 105 40" fill="none" xmlns="http://www.w3.org/2000/svg">
<rect width="105" height="40" fill="#1E1E1E"/>
<g id="Home">
<rect width="1440" height="5557" transform="translate(-80 -5087)" fill="white"/>
<g id="Footer">
<rect width="1440" height="550" transform="translate(-80 -80)" fill="white"/>
<g id="content">
<g id="Row">
<g id="About">
<g id="Logo">
<g id="Vector" clip-path="url(#clip0_0_1)">
<path id="Vector_2" d="M24.9236 0C20.8231 0 16.8906 1.6134 13.9911 4.48528L4.52841 13.8579C1.62891 16.7297 0 20.6248 0 24.6863C0 33.1439 6.92211 40 15.461 40C19.5615 40 23.494 38.3865 26.3935 35.5147L32.9389 29.0316C32.9389 29.0315 32.939 29.0317 32.9389 29.0316L52.01 10.1421C53.3948 8.77055 55.2729 8 57.2313 8C60.51 8 63.2897 10.1165 64.2534 13.0454L70.2722 7.08395C67.5264 2.82445 62.7119 0 57.2313 0C53.1308 0 49.1983 1.6134 46.2988 4.48528L20.6823 29.8579C19.2975 31.2295 17.4194 32 15.461 32C11.3829 32 8.07692 28.7256 8.07692 24.6863C8.07692 22.7465 8.85488 20.8863 10.2397 19.5147L19.7023 10.1421C21.0871 8.77055 22.9653 8 24.9236 8C28.2025 8 30.982 10.1166 31.9457 13.0456L37.9646 7.08409C35.2189 2.82453 30.4044 0 24.9236 0Z" fill="#E14817"/>
<path id="Vector_3" d="M52.9903 29.8579C51.6056 31.2295 49.7274 32 47.769 32C44.4907 32 41.7113 29.884 40.7474 26.9556L34.7287 32.9169C37.4746 37.1759 42.2888 40 47.769 40C51.8695 40 55.8021 38.3865 58.7015 35.5147L84.318 10.1421C85.7028 8.77055 87.581 8 89.5394 8C93.6175 8 96.9234 11.2745 96.9234 15.3137C96.9234 17.2535 96.1455 19.1137 94.7607 20.4853L85.298 29.8579C83.9132 31.2295 82.0351 32 80.0767 32C76.7982 32 74.0186 29.8836 73.0548 26.9549L67.0361 32.9164C69.7819 37.1757 74.5963 40 80.0767 40C84.1772 40 88.1097 38.3865 91.0092 35.5147L100.472 26.1421C103.371 23.2703 105 19.3752 105 15.3137C105 6.85619 98.0783 0 89.5394 0C85.4389 0 81.5063 1.6134 78.6069 4.48528L52.9903 29.8579Z" fill="#E14817"/>
</g>
</g>
</g>
</g>
</g>
</g>
</g>
<defs>
<clipPath id="clip0_0_1">
<rect width="105" height="40" fill="white"/>
</clipPath>
</defs>
</svg>
